<svg id="Layer_1" data-name="Layer 1" xmlns="http://www.w3.org/2000/svg" viewBox="0 0 77.74 15.87"><defs><style>.cls-1{fill:#276a89;}.cls-2{fill:#fff;}</style></defs><title>nav-logo</title><path class="cls-1" d="M42.59,5.43v.94a.17.17,0,0,1-.17.16H40a.14.14,0,0,0-.13.14v.49A.14.14,0,0,0,40,7.3h1.93a.16.16,0,0,1,.16.16v.9a.16.16,0,0,1-.16.16H40a.14.14,0,0,0-.13.14v.41A.13.13,0,0,0,40,9.2h2.41a.18.18,0,0,1,.17.17v.93a3.47,3.47,0,0,0,1.14-2.43A3.47,3.47,0,0,0,42.59,5.43Z"/><path class="cls-2" d="M44.34,9.41a.13.13,0,0,1,.14-.15h.11a.14.14,0,0,1,.14.13c.09.54.7.92,1.66.92s1.52-.41,1.52-1-.75-.94-1.65-1.21-1.89-.59-1.89-1.55.74-1.39,1.88-1.39,1.93.53,2,1.29c0,.06,0,.15-.11.15H48a.13.13,0,0,1-.13-.14c-.08-.54-.67-.92-1.59-.92s-1.46.41-1.46,1,.72.92,1.59,1.19,1.95.58,1.95,1.58c0,.83-.76,1.38-1.94,1.38S44.4,10.17,44.34,9.41Z"/><path class="cls-2" d="M48.76,5.68a.12.12,0,0,1-.13-.12V5.41a.12.12,0,0,1,.13-.12h4a.12.12,0,0,1,.12.12v.15a.12.12,0,0,1-.12.12H51a.09.09,0,0,0-.1.09v4.69a.12.12,0,0,1-.12.12h-.15a.12.12,0,0,1-.13-.12V5.77a.09.09,0,0,0-.09-.09Z"/><path class="cls-2" d="M52.74,7.93a2.76,2.76,0,1,1,2.76,2.76A2.76,2.76,0,0,1,52.74,7.93Zm.41,0A2.35,2.35,0,1,0,55.5,5.58,2.35,2.35,0,0,0,53.15,7.93Z"/><path class="cls-2" d="M59.2,5.41a.12.12,0,0,1,.12-.12h2.22a1.71,1.71,0,0,1,.68,3.31.07.07,0,0,0,0,.11l1.27,1.77a.06.06,0,0,1-.06.1h-.24a.24.24,0,0,1-.19-.1L61.75,8.76a.19.19,0,0,0-.13,0H59.7a.09.09,0,0,0-.1.09v1.66a.12.12,0,0,1-.12.12h-.16a.12.12,0,0,1-.12-.12Zm2.32.26H59.7a.09.09,0,0,0-.1.09V8.23a.09.09,0,0,0,.1.1h1.82a1.33,1.33,0,1,0,0-2.66Z"/><path class="cls-2" d="M63.9,5.29a.23.23,0,0,1,.19.1l2,2.78a.08.08,0,0,0,.11,0l2-2.78a.23.23,0,0,1,.19-.1h.24a.06.06,0,0,1,0,.1L66.39,8.57a.31.31,0,0,0,0,.17v1.72a.12.12,0,0,1-.12.12h-.16a.12.12,0,0,1-.12-.12V8.74a.37.37,0,0,0,0-.17L63.61,5.39a.06.06,0,0,1,0-.1Z"/><path class="cls-2" d="M9.18,5.68a.12.12,0,0,1-.12-.12V5.41a.12.12,0,0,1,.12-.12h4a.12.12,0,0,1,.12.12v.15a.12.12,0,0,1-.12.12h-1.7a.09.09,0,0,0-.09.09v4.69a.12.12,0,0,1-.12.12h-.16a.12.12,0,0,1-.12-.12V5.77a.09.09,0,0,0-.1-.09Z"/><path class="cls-2" d="M14.15,10.58a.12.12,0,0,1-.12-.12V5.41a.12.12,0,0,1,.12-.12h3.39a.12.12,0,0,1,.13.12v.15a.12.12,0,0,1-.13.12h-3a.09.09,0,0,0-.09.09V7.7a.09.09,0,0,0,.09.09h2.54a.12.12,0,0,1,.12.12v.14a.12.12,0,0,1-.12.12H14.52a.09.09,0,0,0-.09.1v1.82a.09.09,0,0,0,.09.1h3a.12.12,0,0,1,.13.12v.15a.12.12,0,0,1-.13.12Z"/><path class="cls-2" d="M18.84,10.58a.12.12,0,0,1-.13-.12V5.41a.12.12,0,0,1,.13-.12H19a.12.12,0,0,1,.12.12v4.68a.09.09,0,0,0,.1.1h2.85a.12.12,0,0,1,.12.12v.15a.12.12,0,0,1-.12.12Z"/><path class="cls-2" d="M23.29,10.58a.12.12,0,0,1-.13-.12V5.41a.12.12,0,0,1,.13-.12h.15a.12.12,0,0,1,.13.12v4.68a.09.09,0,0,0,.09.1h2.85a.12.12,0,0,1,.12.12v.15a.12.12,0,0,1-.12.12Z"/><path class="cls-1" d="M38.68,10.51a.16.16,0,0,1-.16-.16v-5a.16.16,0,0,1,.16-.16h3.68A11.2,11.2,0,0,0,35.14,3a11.17,11.17,0,0,0-7.21,2.25h4.25a.16.16,0,0,1,.16.16v1a.16.16,0,0,1-.16.16H30.82a.14.14,0,0,0-.13.14v3.68a.16.16,0,0,1-.16.16h-1a.16.16,0,0,1-.16-.16V6.67a.14.14,0,0,0-.14-.14H27.84a.16.16,0,0,1-.16-.16V5.45a3.45,3.45,0,0,0-1.13,2.42c0,1.45,1.12,2.76,2.89,3.66a.25.25,0,0,1,.09.38l-1.09,1.4a.26.26,0,0,0,.29.4l3.6-1.19a.25.25,0,0,1,.12,0,14.54,14.54,0,0,0,2.69.25,11.2,11.2,0,0,0,7.22-2.25Zm-1-.16a.16.16,0,0,1-.16.16h-1a.16.16,0,0,1-.16-.16V8.68a.14.14,0,0,0-.13-.14H34.32a.14.14,0,0,0-.14.14v1.67a.16.16,0,0,1-.16.16H33a.16.16,0,0,1-.16-.16v-5A.16.16,0,0,1,33,5.22h1a.16.16,0,0,1,.16.16V7.14a.13.13,0,0,0,.14.13h1.89a.13.13,0,0,0,.13-.13V5.38a.16.16,0,0,1,.16-.16h1a.16.16,0,0,1,.16.16Z"/><path class="cls-1" d="M42.59,5.43v.94a.17.17,0,0,1-.17.16H40a.14.14,0,0,0-.13.14v.49A.14.14,0,0,0,40,7.3h1.93a.16.16,0,0,1,.16.16v.9a.16.16,0,0,1-.16.16H40a.14.14,0,0,0-.13.14v.41A.13.13,0,0,0,40,9.2h2.41a.18.18,0,0,1,.17.17v.93a3.47,3.47,0,0,0,1.14-2.43A3.47,3.47,0,0,0,42.59,5.43Z"/><path class="cls-2" d="M44.34,9.41a.13.13,0,0,1,.14-.15h.11a.14.14,0,0,1,.14.13c.09.54.7.92,1.66.92s1.52-.41,1.52-1-.75-.94-1.65-1.21-1.89-.59-1.89-1.55.74-1.39,1.88-1.39,1.93.53,2,1.29c0,.06,0,.15-.11.15H48a.13.13,0,0,1-.13-.14c-.08-.54-.67-.92-1.59-.92s-1.46.41-1.46,1,.72.92,1.59,1.19,1.95.58,1.95,1.58c0,.83-.76,1.38-1.94,1.38S44.4,10.17,44.34,9.41Z"/><path class="cls-2" d="M48.76,5.68a.12.12,0,0,1-.13-.12V5.41a.12.12,0,0,1,.13-.12h4a.12.12,0,0,1,.12.12v.15a.12.12,0,0,1-.12.12H51a.09.09,0,0,0-.1.09v4.69a.12.12,0,0,1-.12.12h-.15a.12.12,0,0,1-.13-.12V5.77a.09.09,0,0,0-.09-.09Z"/><path class="cls-2" d="M52.74,7.93a2.76,2.76,0,1,1,2.76,2.76A2.76,2.76,0,0,1,52.74,7.93Zm.41,0A2.35,2.35,0,1,0,55.5,5.58,2.35,2.35,0,0,0,53.15,7.93Z"/><path class="cls-2" d="M59.2,5.41a.12.12,0,0,1,.12-.12h2.22a1.71,1.71,0,0,1,.68,3.31.07.07,0,0,0,0,.11l1.27,1.77a.06.06,0,0,1-.06.1h-.24a.24.24,0,0,1-.19-.1L61.75,8.76a.19.19,0,0,0-.13,0H59.7a.09.09,0,0,0-.1.09v1.66a.12.12,0,0,1-.12.12h-.16a.12.12,0,0,1-.12-.12Zm2.32.26H59.7a.09.09,0,0,0-.1.09V8.23a.09.09,0,0,0,.1.1h1.82a1.33,1.33,0,1,0,0-2.66Z"/><path class="cls-2" d="M63.9,5.29a.23.23,0,0,1,.19.1l2,2.78a.08.08,0,0,0,.11,0l2-2.78a.23.23,0,0,1,.19-.1h.24a.06.06,0,0,1,0,.1L66.39,8.57a.31.31,0,0,0,0,.17v1.72a.12.12,0,0,1-.12.12h-.16a.12.12,0,0,1-.12-.12V8.74a.37.37,0,0,0,0-.17L63.61,5.39a.06.06,0,0,1,0-.1Z"/><path class="cls-2" d="M9.18,5.68a.12.12,0,0,1-.12-.12V5.41a.12.12,0,0,1,.12-.12h4a.12.12,0,0,1,.12.12v.15a.12.12,0,0,1-.12.12h-1.7a.09.09,0,0,0-.09.09v4.69a.12.12,0,0,1-.12.12h-.16a.12.12,0,0,1-.12-.12V5.77a.09.09,0,0,0-.1-.09Z"/><path class="cls-2" d="M14.15,10.58a.12.12,0,0,1-.12-.12V5.41a.12.12,0,0,1,.12-.12h3.39a.12.12,0,0,1,.13.12v.15a.12.12,0,0,1-.13.12h-3a.09.09,0,0,0-.09.09V7.7a.09.09,0,0,0,.09.09h2.54a.12.12,0,0,1,.12.12v.14a.12.12,0,0,1-.12.12H14.52a.09.09,0,0,0-.09.1v1.82a.09.09,0,0,0,.09.1h3a.12.12,0,0,1,.13.12v.15a.12.12,0,0,1-.13.12Z"/><path class="cls-2" d="M18.84,10.58a.12.12,0,0,1-.13-.12V5.41a.12.12,0,0,1,.13-.12H19a.12.12,0,0,1,.12.12v4.68a.09.09,0,0,0,.1.1h2.85a.12.12,0,0,1,.12.12v.15a.12.12,0,0,1-.12.12Z"/><path class="cls-2" d="M23.29,10.58a.12.12,0,0,1-.13-.12V5.41a.12.12,0,0,1,.13-.12h.15a.12.12,0,0,1,.13.12v4.68a.09.09,0,0,0,.09.1h2.85a.12.12,0,0,1,.12.12v.15a.12.12,0,0,1-.12.12Z"/></svg>